<svg width="70" height="54" viewBox="0 0 70 54" fill="none" xmlns="http://www.w3.org/2000/svg">
<path d="M3.49817 53.6874H59.4689C61.4007 53.6874 62.967 52.121 62.967 50.1892V45.525C62.967 43.5931 61.4007 42.0268 59.4689 42.0268H58.3028V12.9477L64.9262 6.67331C66.4635 7.43113 68.3242 6.97109 69.3302 5.58241C70.3369 4.1943 70.1957 2.28295 68.9966 1.05768C67.7975 -0.167592 65.8901 -0.350357 64.4798 0.624962C63.0701 1.60085 62.569 3.45071 63.2933 5.00451L58.3028 9.73535V7.0451C58.3028 5.11325 56.7365 3.54694 54.8046 3.54694H8.16239C6.23054 3.54694 4.66422 5.11325 4.66422 7.0451V42.0268H3.49817C1.56632 42.0268 0 43.5931 0 45.525V50.1892C0 52.121 1.56632 53.6874 3.49817 53.6874ZM66.4652 2.38088C67.1091 2.38088 67.6312 2.90299 67.6312 3.54694C67.6312 4.19089 67.1091 4.71299 66.4652 4.71299C65.8212 4.71299 65.2991 4.19089 65.2991 3.54694C65.2991 2.90299 65.8212 2.38088 66.4652 2.38088ZM6.99634 7.0451C6.99634 6.40115 7.51844 5.87905 8.16239 5.87905H54.8046C55.4486 5.87905 55.9707 6.40115 55.9707 7.0451V11.9422L53.6386 14.1582V9.37722C53.6386 8.73327 53.1165 8.21116 52.4725 8.21116H10.4945C9.85055 8.21116 9.32845 8.73327 9.32845 9.37722V38.5286C9.32845 39.1726 9.85055 39.6947 10.4945 39.6947H52.4725C53.1165 39.6947 53.6386 39.1726 53.6386 38.5286V17.366L55.9707 15.1563V42.0268H6.99634V7.0451ZM17.4908 22.2038C15.9131 22.1993 14.5279 23.2503 14.1083 24.7711C13.6886 26.2919 14.3383 27.9049 15.6951 28.71C17.0513 29.515 18.7793 29.3129 19.9129 28.2157L23.9662 30.2495C24.4371 30.4852 25.0081 30.3748 25.3583 29.9813L33.9745 20.2879L42.4443 26.6346C42.8987 26.9751 43.5329 26.9387 43.9452 26.5486L51.3065 19.5757V37.3626H11.6606V10.5433H51.3065V16.3627L43.0564 24.1755L34.5154 17.7725C34.0303 17.4092 33.3476 17.4776 32.9445 17.9302L24.2099 27.758L20.9446 26.125C20.9685 25.985 20.9833 25.8438 20.989 25.702C20.989 23.7702 19.4227 22.2038 17.4908 22.2038ZM18.6569 25.702C18.6569 26.346 18.1348 26.8681 17.4908 26.8681C16.8469 26.8681 16.3248 26.346 16.3248 25.702C16.3248 25.0581 16.8469 24.5359 17.4908 24.5359C18.1348 24.5359 18.6569 25.0581 18.6569 25.702ZM25.6532 44.3589H37.3138V45.525C37.3138 46.1689 36.7917 46.691 36.1477 46.691H26.8193C26.1753 46.691 25.6532 46.1689 25.6532 45.525V44.3589ZM2.33211 45.525C2.33211 44.881 2.85422 44.3589 3.49817 44.3589H23.3211V45.525C23.3211 47.4568 24.8874 49.0231 26.8193 49.0231H36.1477C38.0796 49.0231 39.6459 47.4568 39.6459 45.525V44.3589H59.4689C60.1128 44.3589 60.6349 44.881 60.6349 45.525V50.1892C60.6349 50.8331 60.1128 51.3552 59.4689 51.3552H3.49817C2.85422 51.3552 2.33211 50.8331 2.33211 50.1892V45.525Z" fill="#212121"/>
</svg>
